<mxfile host="app.diagrams.net" modified="2024-11-22T05:54:57.488Z" agent="Mozilla/5.0 (Windows NT 10.0; Win64; x64) AppleWebKit/537.36 (KHTML, like Gecko) Chrome/130.0.0.0 Safari/537.36" version="24.1.0" etag="v_28AnhZXwlKwdGMsMST" type="github">
  <diagram name="Page-1" id="KlxP14tHxJJLbwHJeZr5">
    <mxGraphModel>
      <root>
        <mxCell id="0" />
        <mxCell id="1" parent="0" />
        <mxCell id="2" value="Software Design Patterns" style="ellipse;aspect=fixed;strokeWidth=2;whiteSpace=wrap;" vertex="1" parent="1">
          <mxGeometry y="587" width="194" height="194" as="geometry" />
        </mxCell>
        <mxCell id="3" value="Creational" style="rounded=1;absoluteArcSize=1;arcSize=14;whiteSpace=wrap;strokeWidth=2;" vertex="1" parent="1">
          <mxGeometry x="245" y="167" width="89" height="33" as="geometry" />
        </mxCell>
        <mxCell id="4" value="Structural" style="rounded=1;absoluteArcSize=1;arcSize=14;whiteSpace=wrap;strokeWidth=2;" vertex="1" parent="1">
          <mxGeometry x="246" y="667" width="86" height="33" as="geometry" />
        </mxCell>
        <mxCell id="5" value="Behavioral" style="rounded=1;absoluteArcSize=1;arcSize=14;whiteSpace=wrap;strokeWidth=2;" vertex="1" parent="1">
          <mxGeometry x="244" y="1376" width="90" height="33" as="geometry" />
        </mxCell>
        <mxCell id="6" value="Abstract Factory" style="rounded=1;absoluteArcSize=1;arcSize=14;whiteSpace=wrap;strokeWidth=2;" vertex="1" parent="1">
          <mxGeometry x="406" width="135" height="33" as="geometry" />
        </mxCell>
        <mxCell id="7" value="Builder" style="rounded=1;absoluteArcSize=1;arcSize=14;whiteSpace=wrap;strokeWidth=2;" vertex="1" parent="1">
          <mxGeometry x="440" y="83" width="67" height="33" as="geometry" />
        </mxCell>
        <mxCell id="8" value="Factory Method" style="rounded=1;absoluteArcSize=1;arcSize=14;whiteSpace=wrap;strokeWidth=2;" vertex="1" parent="1">
          <mxGeometry x="411" y="167" width="126" height="33" as="geometry" />
        </mxCell>
        <mxCell id="9" value="Prototype" style="rounded=1;absoluteArcSize=1;arcSize=14;whiteSpace=wrap;strokeWidth=2;" vertex="1" parent="1">
          <mxGeometry x="431" y="250" width="85" height="33" as="geometry" />
        </mxCell>
        <mxCell id="10" value="Singleton" style="rounded=1;absoluteArcSize=1;arcSize=14;whiteSpace=wrap;strokeWidth=2;" vertex="1" parent="1">
          <mxGeometry x="433" y="334" width="81" height="33" as="geometry" />
        </mxCell>
        <mxCell id="11" value="Adapter" style="rounded=1;absoluteArcSize=1;arcSize=14;whiteSpace=wrap;strokeWidth=2;" vertex="1" parent="1">
          <mxGeometry x="437" y="417" width="74" height="33" as="geometry" />
        </mxCell>
        <mxCell id="12" value="Bridge" style="rounded=1;absoluteArcSize=1;arcSize=14;whiteSpace=wrap;strokeWidth=2;" vertex="1" parent="1">
          <mxGeometry x="443" y="500" width="61" height="33" as="geometry" />
        </mxCell>
        <mxCell id="13" value="Composite" style="rounded=1;absoluteArcSize=1;arcSize=14;whiteSpace=wrap;strokeWidth=2;" vertex="1" parent="1">
          <mxGeometry x="429" y="584" width="90" height="33" as="geometry" />
        </mxCell>
        <mxCell id="14" value="Decorator" style="rounded=1;absoluteArcSize=1;arcSize=14;whiteSpace=wrap;strokeWidth=2;" vertex="1" parent="1">
          <mxGeometry x="430" y="667" width="87" height="33" as="geometry" />
        </mxCell>
        <mxCell id="15" value="Facade" style="rounded=1;absoluteArcSize=1;arcSize=14;whiteSpace=wrap;strokeWidth=2;" vertex="1" parent="1">
          <mxGeometry x="441" y="751" width="66" height="33" as="geometry" />
        </mxCell>
        <mxCell id="16" value="Flyweight" style="rounded=1;absoluteArcSize=1;arcSize=14;whiteSpace=wrap;strokeWidth=2;" vertex="1" parent="1">
          <mxGeometry x="431" y="834" width="84" height="33" as="geometry" />
        </mxCell>
        <mxCell id="17" value="Proxy" style="rounded=1;absoluteArcSize=1;arcSize=14;whiteSpace=wrap;strokeWidth=2;" vertex="1" parent="1">
          <mxGeometry x="446" y="917" width="55" height="33" as="geometry" />
        </mxCell>
        <mxCell id="18" value="Chain of Responsibility" style="rounded=1;absoluteArcSize=1;arcSize=14;whiteSpace=wrap;strokeWidth=2;" vertex="1" parent="1">
          <mxGeometry x="385" y="1001" width="178" height="33" as="geometry" />
        </mxCell>
        <mxCell id="19" value="Command" style="rounded=1;absoluteArcSize=1;arcSize=14;whiteSpace=wrap;strokeWidth=2;" vertex="1" parent="1">
          <mxGeometry x="431" y="1084" width="86" height="33" as="geometry" />
        </mxCell>
        <mxCell id="20" value="Interpreter" style="rounded=1;absoluteArcSize=1;arcSize=14;whiteSpace=wrap;strokeWidth=2;" vertex="1" parent="1">
          <mxGeometry x="426" y="1168" width="96" height="33" as="geometry" />
        </mxCell>
        <mxCell id="21" value="Iterator" style="rounded=1;absoluteArcSize=1;arcSize=14;whiteSpace=wrap;strokeWidth=2;" vertex="1" parent="1">
          <mxGeometry x="438" y="1251" width="71" height="33" as="geometry" />
        </mxCell>
        <mxCell id="22" value="Mediator" style="rounded=1;absoluteArcSize=1;arcSize=14;whiteSpace=wrap;strokeWidth=2;" vertex="1" parent="1">
          <mxGeometry x="434" y="1334" width="80" height="33" as="geometry" />
        </mxCell>
        <mxCell id="23" value="Memento" style="rounded=1;absoluteArcSize=1;arcSize=14;whiteSpace=wrap;strokeWidth=2;" vertex="1" parent="1">
          <mxGeometry x="433" y="1418" width="82" height="33" as="geometry" />
        </mxCell>
        <mxCell id="24" value="Observer" style="rounded=1;absoluteArcSize=1;arcSize=14;whiteSpace=wrap;strokeWidth=2;" vertex="1" parent="1">
          <mxGeometry x="434" y="1501" width="80" height="33" as="geometry" />
        </mxCell>
        <mxCell id="25" value="State" style="rounded=1;absoluteArcSize=1;arcSize=14;whiteSpace=wrap;strokeWidth=2;" vertex="1" parent="1">
          <mxGeometry x="447" y="1585" width="53" height="33" as="geometry" />
        </mxCell>
        <mxCell id="26" value="Strategy" style="rounded=1;absoluteArcSize=1;arcSize=14;whiteSpace=wrap;strokeWidth=2;" vertex="1" parent="1">
          <mxGeometry x="436" y="1668" width="76" height="33" as="geometry" />
        </mxCell>
        <mxCell id="27" value="Visitor" style="rounded=1;absoluteArcSize=1;arcSize=14;whiteSpace=wrap;strokeWidth=2;" vertex="1" parent="1">
          <mxGeometry x="442" y="1751" width="63" height="33" as="geometry" />
        </mxCell>
        <mxCell id="28" value="" style="curved=1;startArrow=none;endArrow=block;exitX=0.6227363174965843;exitY=-0.0010953096999335534;entryX=-0.0032214904099367976;entryY=0.5000001155968868;" edge="1" parent="1" source="2" target="3">
          <mxGeometry relative="1" as="geometry">
            <Array as="points">
              <mxPoint x="219" y="184" />
            </Array>
          </mxGeometry>
        </mxCell>
        <mxCell id="29" value="" style="curved=1;startArrow=none;endArrow=block;exitX=1.0011598252758538;exitY=0.4994846029379933;entryX=0.0020712919013444768;entryY=0.5121216051506273;" edge="1" parent="1" source="2" target="4">
          <mxGeometry relative="1" as="geometry">
            <Array as="points" />
          </mxGeometry>
        </mxCell>
        <mxCell id="30" value="" style="curved=1;startArrow=none;endArrow=block;exitX=0.586807963126391;exitY=1.0000645155759202;entryX=0.0025000678168402776;entryY=0.5090916951497396;" edge="1" parent="1" source="2" target="5">
          <mxGeometry relative="1" as="geometry">
            <Array as="points">
              <mxPoint x="219" y="1393" />
            </Array>
          </mxGeometry>
        </mxCell>
        <mxCell id="31" value="" style="curved=1;startArrow=none;endArrow=block;exitX=0.5777517523870053;exitY=-0.006060513583096591;entryX=-0.000057813856336805553;entryY=0.5060606291799834;" edge="1" parent="1" source="3" target="6">
          <mxGeometry relative="1" as="geometry">
            <Array as="points">
              <mxPoint x="360" y="17" />
            </Array>
          </mxGeometry>
        </mxCell>
        <mxCell id="32" value="" style="curved=1;startArrow=none;endArrow=block;exitX=0.6566884611853079;exitY=-0.006060513583096591;entryX=0.0031601635377798507;entryY=0.5181818875399503;" edge="1" parent="1" source="3" target="7">
          <mxGeometry relative="1" as="geometry">
            <Array as="points">
              <mxPoint x="360" y="100" />
            </Array>
          </mxGeometry>
        </mxCell>
        <mxCell id="33" value="" style="curved=1;startArrow=none;endArrow=block;exitX=1.000851577587342;exitY=0.5000001155968868;entryX=-0.0036023457845052085;entryY=0.5000001155968868;" edge="1" parent="1" source="3" target="8">
          <mxGeometry relative="1" as="geometry">
            <Array as="points" />
          </mxGeometry>
        </mxCell>
        <mxCell id="34" value="" style="curved=1;startArrow=none;endArrow=block;exitX=0.6566884611853079;exitY=1.0060607447768704;entryX=0.002867754767922794;entryY=0.5121213739568536;" edge="1" parent="1" source="3" target="9">
          <mxGeometry relative="1" as="geometry">
            <Array as="points">
              <mxPoint x="360" y="267" />
            </Array>
          </mxGeometry>
        </mxCell>
        <mxCell id="35" value="" style="curved=1;startArrow=none;endArrow=block;exitX=0.5777517523870053;exitY=1.0060607447768704;entryX=0.0011864650396653164;entryY=0.4939396020137902;" edge="1" parent="1" source="3" target="10">
          <mxGeometry relative="1" as="geometry">
            <Array as="points">
              <mxPoint x="360" y="350" />
            </Array>
          </mxGeometry>
        </mxCell>
        <mxCell id="36" value="" style="curved=1;startArrow=none;endArrow=block;exitX=0.5590478713344242;exitY=0.006060975970643939;entryX=-0.0027025583628061656;entryY=0.5060608603737571;" edge="1" parent="1" source="4" target="11">
          <mxGeometry relative="1" as="geometry">
            <Array as="points">
              <mxPoint x="360" y="434" />
            </Array>
          </mxGeometry>
        </mxCell>
        <mxCell id="37" value="" style="curved=1;startArrow=none;endArrow=block;exitX=0.5862779763074821;exitY=0.006060975970643939;entryX=0.006237373977410989;entryY=0.518182118733724;" edge="1" parent="1" source="4" target="12">
          <mxGeometry relative="1" as="geometry">
            <Array as="points">
              <mxPoint x="360" y="517" />
            </Array>
          </mxGeometry>
        </mxCell>
        <mxCell id="38" value="" style="curved=1;startArrow=none;endArrow=block;exitX=0.6679682912266558;exitY=0.006060975970643939;entryX=-0.00432281494140625;entryY=0.5000003467906605;" edge="1" parent="1" source="4" target="13">
          <mxGeometry relative="1" as="geometry">
            <Array as="points">
              <mxPoint x="360" y="601" />
            </Array>
          </mxGeometry>
        </mxCell>
        <mxCell id="39" value="" style="curved=1;startArrow=none;endArrow=block;exitX=1.0071040308752726;exitY=0.5121216051506273;entryX=0.0031071366934940733;entryY=0.5121216051506273;" edge="1" parent="1" source="4" target="14">
          <mxGeometry relative="1" as="geometry">
            <Array as="points" />
          </mxGeometry>
        </mxCell>
        <mxCell id="40" value="" style="curved=1;startArrow=none;endArrow=block;exitX=0.6679682912266558;exitY=1.0181822343306108;entryX=-0.003823251435250947;entryY=0.4939398332075639;" edge="1" parent="1" source="4" target="15">
          <mxGeometry relative="1" as="geometry">
            <Array as="points">
              <mxPoint x="360" y="767" />
            </Array>
          </mxGeometry>
        </mxCell>
        <mxCell id="41" value="" style="curved=1;startArrow=none;endArrow=block;exitX=0.5862779763074821;exitY=1.0181822343306108;entryX=0.005747885931105841;entryY=0.5060610915675308;" edge="1" parent="1" source="4" target="16">
          <mxGeometry relative="1" as="geometry">
            <Array as="points">
              <mxPoint x="360" y="851" />
            </Array>
          </mxGeometry>
        </mxCell>
        <mxCell id="42" value="" style="curved=1;startArrow=none;endArrow=block;exitX=0.5590478713344242;exitY=1.0181822343306108;entryX=0.0050002011385830965;entryY=0.5181823499274977;" edge="1" parent="1" source="4" target="17">
          <mxGeometry relative="1" as="geometry">
            <Array as="points">
              <mxPoint x="360" y="934" />
            </Array>
          </mxGeometry>
        </mxCell>
        <mxCell id="43" value="" style="curved=1;startArrow=none;endArrow=block;exitX=0.5390769361070947;exitY=0.0030310659697561555;entryX=-0.00244903564453125;entryY=0.5000005779844342;" edge="1" parent="1" source="5" target="18">
          <mxGeometry relative="1" as="geometry">
            <Array as="points">
              <mxPoint x="360" y="1018" />
            </Array>
          </mxGeometry>
        </mxCell>
        <mxCell id="44" value="" style="curved=1;startArrow=none;endArrow=block;exitX=0.5489892706158053;exitY=0.0030310659697561555;entryX=-0.00258889309195585;entryY=0.512121836344401;" edge="1" parent="1" source="5" target="19">
          <mxGeometry relative="1" as="geometry">
            <Array as="points">
              <mxPoint x="360" y="1101" />
            </Array>
          </mxGeometry>
        </mxCell>
        <mxCell id="45" value="" style="curved=1;startArrow=none;endArrow=block;exitX=0.5668314727314857;exitY=0.0030310659697561555;entryX=-0.0014159282048543294;entryY=0.4939400644013376;" edge="1" parent="1" source="5" target="20">
          <mxGeometry relative="1" as="geometry">
            <Array as="points">
              <mxPoint x="360" y="1184" />
            </Array>
          </mxGeometry>
        </mxCell>
        <mxCell id="46" value="" style="curved=1;startArrow=none;endArrow=block;exitX=0.6084632776680716;exitY=0.0030310659697561555;entryX=0.00045131629621478875;entryY=0.5060613227613044;" edge="1" parent="1" source="5" target="21">
          <mxGeometry relative="1" as="geometry">
            <Array as="points">
              <mxPoint x="360" y="1268" />
            </Array>
          </mxGeometry>
        </mxCell>
        <mxCell id="47" value="" style="curved=1;startArrow=none;endArrow=block;exitX=0.8166223023510036;exitY=0.0030310659697561555;entryX=-0.003427600860595703;entryY=0.5181825811212714;" edge="1" parent="1" source="5" target="22">
          <mxGeometry relative="1" as="geometry">
            <Array as="points">
              <mxPoint x="360" y="1351" />
            </Array>
          </mxGeometry>
        </mxCell>
        <mxCell id="48" value="" style="curved=1;startArrow=none;endArrow=block;exitX=0.8166223023510036;exitY=1.015152324329723;entryX=-0.002619906169612233;entryY=0.5000008091782079;" edge="1" parent="1" source="5" target="23">
          <mxGeometry relative="1" as="geometry">
            <Array as="points">
              <mxPoint x="360" y="1435" />
            </Array>
          </mxGeometry>
        </mxCell>
        <mxCell id="49" value="" style="curved=1;startArrow=none;endArrow=block;exitX=0.6084632776680716;exitY=1.015152324329723;entryX=-0.003359270095825195;entryY=0.5121220675381747;" edge="1" parent="1" source="5" target="24">
          <mxGeometry relative="1" as="geometry">
            <Array as="points">
              <mxPoint x="360" y="1518" />
            </Array>
          </mxGeometry>
        </mxCell>
        <mxCell id="50" value="" style="curved=1;startArrow=none;endArrow=block;exitX=0.5668314727314857;exitY=1.015152324329723;entryX=0.007105161558906987;entryY=0.49394029559511127;" edge="1" parent="1" source="5" target="25">
          <mxGeometry relative="1" as="geometry">
            <Array as="points">
              <mxPoint x="360" y="1601" />
            </Array>
          </mxGeometry>
        </mxCell>
        <mxCell id="51" value="" style="curved=1;startArrow=none;endArrow=block;exitX=0.5489892706158053;exitY=1.015152324329723;entryX=-0.0014698630885074014;entryY=0.5060615539550781;" edge="1" parent="1" source="5" target="26">
          <mxGeometry relative="1" as="geometry">
            <Array as="points">
              <mxPoint x="360" y="1685" />
            </Array>
          </mxGeometry>
        </mxCell>
        <mxCell id="52" value="" style="curved=1;startArrow=none;endArrow=block;exitX=0.5390769361070947;exitY=1.015152324329723;entryX=0.005568125891307044;entryY=0.5181828123150449;" edge="1" parent="1" source="5" target="27">
          <mxGeometry relative="1" as="geometry">
            <Array as="points">
              <mxPoint x="360" y="1768" />
            </Array>
          </mxGeometry>
        </mxCell>
      </root>
    </mxGraphModel>
  </diagram>
</mxfile>
